<?xml version="1.0" encoding="UTF-8"?>
<svg width="96" height="96" viewBox="0 0 96 96" xmlns="http://www.w3.org/2000/svg">
  <defs>
    <linearGradient id="g" x1="0" y1="0" x2="1" y2="1">
      <stop offset="0%" stop-color="#667eea"/>
      <stop offset="100%" stop-color="#764ba2"/>
    </linearGradient>
  </defs>
  <rect x="8" y="8" width="80" height="80" rx="16" fill="url(#g)"/>
  <g fill="#fff" transform="translate(16,16)">
    <path d="M32 0c1.7 0 3 1.3 3 3v6h13a3 3 0 013 3v8c0 7.2-5.8 13-13 13h-1.4c-1.7 3.6-4.7 6.3-8.6 7.6V49h9a3 3 0 110 6H17a3 3 0 110-6h9v-8.8c-3.9-1.3-6.9-4-8.6-7.6H16C8.8 33 3 27.2 3 20v-8a3 3 0 013-3h13V3a3 3 0 013-3h10zm-7 12H9v5c0 4.4 3.6 8 8 8h8.2A14.9 14.9 0 0125 20v-8zm14 0v8c0 2.8-.7 5.4-2.2 7.8H45c4.4 0 8-3.6 8-8v-5H39z"/>
  </g>
</svg>
